Coordinates
version=1
nRows=16
nColumns=36
inDegrees=yes

Units are S.I. units (second, meters, Newtons, ...)
If the header above contains a line with 'inDegrees', this indicates whether rotational values are in degrees (yes) or radians (no).

endheader
time	pelvis_tilt	pelvis_list	pelvis_rotation	pelvis_tx	pelvis_ty	pelvis_tz	hip_flexion_r	hip_adduction_r	hip_rotation_r	knee_angle_r	knee_angle_r_beta	ankle_angle_r	subtalar_angle_r	mtp_angle_r	hip_flexion_l	hip_adduction_l	hip_rotation_l	knee_angle_l	knee_angle_l_beta	ankle_angle_l	subtalar_angle_l	mtp_angle_l	lumbar_extension	lumbar_bending	lumbar_rotation	arm_flex_r	arm_add_r	arm_rot_r	elbow_flex_r	pro_sup_r	arm_flex_l	arm_add_l	arm_rot_l	elbow_flex_l	pro_sup_l
      1.37000000	    -15.86363946	     -5.26668810	      1.18840347	     -0.34786687	      0.63093004	     -0.55619531	     81.68087507	      1.06719470	     -6.55849581	    100.51447442	      1.75430852	     31.42683515	    -16.51905648	     -7.39168305	     86.60243807	     -7.07233869	     11.27797173	     99.83278518	      1.74241080	     30.22809302	      1.37612309	     -7.39168305	    -37.09916605	      1.96467594	     -3.49297017	     16.92744696	    -35.54732512	      6.60644653	    100.49569569	    112.87596149	     24.69031039	    -17.70441645	     -2.52617758	     82.72594323	     84.91141762
      1.38000000	    -16.05243640	     -5.23767966	      1.31819214	     -0.34585688	      0.62648324	     -0.55682263	     82.19101836	      1.01672326	     -6.36418476	    101.26129589	      1.76734302	     31.61981527	    -16.65334427	     -7.39193379	     87.21318818	     -6.81852087	     11.38187743	    100.74187462	      1.75827741	     30.39070687	      1.41094217	     -7.39193379	    -38.13686562	      2.08108808	     -3.13027566	     16.89865581	    -35.31225158	      6.55240082	    100.02019119	    112.82486750	     23.90975623	    -17.69973765	     -2.86510061	     82.15687313	     84.81222207
      1.39000000	    -16.92989415	     -5.60479472	      1.70559595	     -0.34401267	      0.62162355	     -0.55814935	     83.29154699	      0.80047118	     -6.54717466	    101.83284034	      1.77731835	     32.26541542	    -16.93038638	     -7.39317416	     88.47788015	     -5.69761537	     12.35791024	    101.43483421	      1.77037183	     31.01415742	      1.22062085	     -7.39317416	    -38.10662196	      2.81020163	     -3.12068436	     17.02228583	    -34.39586226	      6.43285781	     98.25998851	    112.65452375	     22.69434983	    -16.96038929	     -4.85415734	     80.70192643	     84.47834325
      1.40000000	    -17.46076010	     -6.12393718	      2.11284137	     -0.34226033	      0.61799707	     -0.55967959	     83.94146669	      0.65340202	     -6.81847963	    102.36589987	      1.78662199	     32.72427487	    -16.93333198	     -7.40062239	     89.29394523	     -4.49788704	     13.51343830	    102.04007681	      1.78093531	     30.86092322	      0.24998388	     -7.40062239	    -38.46514764	      3.85557610	     -4.46015773	     19.52322609	    -33.37462068	      9.41240483	     95.29284257	    112.77478123	     19.99128239	    -17.01786585	     -8.41563543	     80.65706530	     84.20903125
      1.41000000	    -17.83416142	     -6.38935159	      2.32158106	     -0.34002733	      0.61537309	     -0.56051625	     84.36754196	      0.71057843	     -6.84759287	    102.82702726	      1.79467019	     33.03009056	    -17.22432848	     -7.40179388	     89.91705705	     -4.39109436	     13.67022238	    102.54537227	      1.78975438	     31.24125035	      0.47628917	     -7.40179388	    -38.88051019	      4.33600974	     -4.20584793	     19.37827457	    -32.45733345	      8.99740719	     93.23324039	    112.65097519	     19.07682954	    -16.61168141	     -9.31163932	     78.27698557	     83.86701299
      1.42000000	    -18.01336259	     -6.61437839	      2.36193353	     -0.33741327	      0.61379184	     -0.56081235	     84.49862243	      0.96701949	     -6.88128995	    103.14903595	      1.80029030	     33.30456060	    -17.50557619	     -7.40272191	     90.37389216	     -5.12699775	     13.25637353	    102.99199254	      1.79754937	     31.54851848	      1.16568871	     -7.40272191	    -39.40788307	      4.65421403	     -3.91197940	     19.40862560	    -31.40908616	      8.76728269	     90.84236598	    112.51569541	     18.23252821	    -16.31626194	    -10.00883220	     75.36435154	     83.44893004
      1.43000000	    -18.32485782	     -6.86872443	      2.66979033	     -0.33508008	      0.61270993	     -0.56103392	     84.72193972	      0.97261361	     -6.97850866	    103.38881775	      1.80447528	     33.28171071	    -17.96649145	     -7.40860371	     90.68863108	     -5.05916979	     13.39730251	    103.15912894	      1.80046645	     32.52047289	      2.40816049	     -7.40860371	    -39.60147397	      5.11974462	     -4.13987760	     20.08207266	    -30.43062550	      9.84194189	     87.47449803	    112.60937723	     17.24456770	    -16.32454957	    -10.56533381	     72.29930747	     82.66014908
      1.44000000	    -18.71339893	     -7.05550327	      3.09764840	     -0.33306586	      0.61235615	     -0.56098472	     84.95420681	      0.87847244	     -7.05415331	    103.50111383	      1.80643522	     33.45771508	    -18.26979821	     -7.40958072	     90.75820867	     -4.16577881	     14.01817679	    103.04350666	      1.79844846	     32.85216273	      1.85424642	     -7.40958072	    -39.68758558	      5.46052845	     -4.14392403	     20.10477783	    -29.25087936	      9.71200858	     84.28547867	    112.44416382	     16.71997796	    -16.21474488	    -10.62657838	     69.09193750	     82.18236975
      1.45000000	    -19.08308611	     -7.03920325	      3.23915745	     -0.33082536	      0.61272141	     -0.56026096	     85.13231837	      1.14399820	     -6.86955249	    103.50080174	      1.80642977	     33.33829339	    -18.84733377	     -7.41165341	     90.71562938	     -3.69571565	     14.39409537	    102.92315273	      1.79634789	     32.88472854	      1.42040071	     -7.41165341	    -39.56547013	      5.40829072	     -4.14129674	     20.51690614	    -28.33515639	     10.71237762	     80.44136654	    112.45007355	     16.45021248	    -16.24848843	    -10.14951731	     65.22009337	     81.50268845
      1.46000000	    -19.22445303	     -7.09567614	      3.28140344	     -0.32832227	      0.61419405	     -0.55930778	     84.92890736	      1.60634189	     -6.76815600	    103.30177537	      1.80295610	     33.49534581	    -19.37460491	     -7.41251134	     90.41622787	     -3.67092937	     14.67657751	    102.74945585	      1.79331631	     33.19716241	      1.36465465	     -7.41251134	    -39.70264219	      5.24470686	     -3.76848478	     20.59122989	    -27.20816054	     10.66870309	     76.48721554	    112.30536401	     16.34219086	    -15.82366936	    -10.36746937	     62.19098108	     81.01513162
      1.47000000	    -19.50378289	     -7.06752107	      3.44236196	     -0.32593476	      0.61630461	     -0.55865005	     84.79090061	      1.88771122	     -6.56599632	    102.97979201	      1.79733643	     33.39805668	    -19.90971637	     -7.41342439	     90.22037963	     -3.68252425	     14.58824808	    102.35177194	      1.78637542	     33.31894587	      1.58048308	     -7.41342439	    -39.53335626	      5.12773625	     -3.58894007	     20.84915440	    -26.26967179	     11.21091461	     72.33192373	    112.28460384	     16.62652256	    -15.24056419	    -10.87171374	     58.52443427	     80.43019665
      1.48000000	    -19.73165262	     -7.09744425	      3.66459838	     -0.32357580	      0.61886005	     -0.55847094	     84.56213534	      2.04556850	     -6.48334751	    102.59434226	      1.79060907	     32.63872851	    -21.07549191	     -7.41725588	     90.14646370	     -3.92296007	     14.16557107	    102.01040595	      1.78041746	     33.39745074	      2.01383966	     -7.41725588	    -39.19741964	      5.27484590	     -4.17621054	     22.30435534	    -25.54627816	     13.97777743	     67.38505092	    113.03210248	     16.48757374	    -15.00557133	    -11.86730131	     54.90817597	     79.63765160
      1.49000000	    -19.82051238	     -7.15154625	      3.86689877	     -0.32108163	      0.62247199	     -0.55833650	     84.02222143	      2.28415604	     -6.36787701	    102.02571409	      1.78068463	     32.50620167	    -21.66566248	     -7.42318955	     89.80744437	     -4.25644952	     13.77407328	    101.47535658	      1.77107908	     33.34987566	      2.40401023	     -7.42318955	    -39.07383050	      5.36812890	     -4.65759249	     23.55258823	    -24.47134520	     15.49813783	     62.59053376	    113.41781638	     16.32788068	    -14.36977731	    -13.88983344	     52.35251709	     79.28198307
      1.50000000	    -19.77607535	     -7.18277632	      4.04673947	     -0.31859997	      0.62666830	     -0.55816516	     83.29817638	      2.51271460	     -6.25799960	    101.40450278	      1.76984245	     32.63161260	    -21.92577063	     -7.42408364	     89.14597311	     -4.33950121	     13.64691845	    100.87732705	      1.76064150	     33.33385163	      2.49019627	     -7.42408364	    -39.03514942	      5.34260080	     -4.32072534	     23.68256696	    -23.86097017	     15.16395665	     59.03978848	    113.17507417	     16.95558363	    -13.63105392	    -14.75718023	     49.82418936	     79.02438086
      1.51000000	    -19.99889140	     -7.21850150	      4.22162861	     -0.31624450	      0.63096329	     -0.55775965	     82.83048311	      2.70728783	     -6.16639727	    100.65941702	      1.75683825	     32.41016236	    -22.31263798	     -7.42566017	     88.51242304	     -3.94811338	     13.93451857	    100.07363496	      1.74661442	     33.42833323	      2.14156542	     -7.42566017	    -38.50028753	      5.41924272	     -4.44525868	     24.21538963	    -23.18318120	     15.57715236	     55.57340197	    113.02766330	     17.50998455	    -13.31304927	    -15.60894836	     46.73666921	     78.94716653
      1.52000000	    -20.01191144	     -7.20247481	      4.47953218	     -0.31381044	      0.63609502	     -0.55718492	     82.08133783	      2.82257164	     -6.11726398	     99.84611257	      1.74264341	     32.19847952	    -22.77619644	     -7.42703732	     87.49595720	     -3.30250918	     14.39702757	     99.14494138	      1.73040566	     33.42151463	      1.35743158	     -7.42703732	    -38.17312926	      5.39876409	     -4.49747575	     24.57813465	    -22.73963142	     15.75791609	     52.58401530	    112.91944718	     17.95642258	    -13.17842666	    -16.06416952	     45.00700678	     79.10893113
